<svg width="15" height="15" viewBox="0 0 15 15" fill="none" xmlns="http://www.w3.org/2000/svg">
<path d="M10.625 2.03125H10.4688V1.875C10.4688 1.61625 10.2587 1.40625 10 1.40625C9.74125 1.40625 9.53125 1.61625 9.53125 1.875V2.03125H5.46875V1.875C5.46875 1.61625 5.25875 1.40625 5 1.40625C4.74125 1.40625 4.53125 1.61625 4.53125 1.875V2.03125H4.375C2.73813 2.03125 1.40625 3.36313 1.40625 5V10.625C1.40625 12.2619 2.73813 13.5938 4.375 13.5938H10.625C12.2619 13.5938 13.5938 12.2619 13.5938 10.625V5C13.5938 3.36313 12.2619 2.03125 10.625 2.03125ZM4.375 2.96875H4.53125V3.75C4.53125 4.00875 4.74125 4.21875 5 4.21875C5.25875 4.21875 5.46875 4.00875 5.46875 3.75V2.96875H9.53125V3.75C9.53125 4.00875 9.74125 4.21875 10 4.21875C10.2587 4.21875 10.4688 4.00875 10.4688 3.75V2.96875H10.625C11.745 2.96875 12.6562 3.88 12.6562 5V5.15625H2.34375V5C2.34375 3.88 3.255 2.96875 4.375 2.96875ZM10.625 12.6562H4.375C3.255 12.6562 2.34375 11.745 2.34375 10.625V6.09375H12.6562V10.625C12.6562 11.745 11.745 12.6562 10.625 12.6562ZM10.625 8.125C10.625 8.47 10.345 8.75 10 8.75C9.655 8.75 9.375 8.47 9.375 8.125C9.375 7.78 9.655 7.5 10 7.5C10.345 7.5 10.625 7.78 10.625 8.125ZM8.125 8.125C8.125 8.47 7.845 8.75 7.5 8.75C7.155 8.75 6.875 8.47 6.875 8.125C6.875 7.78 7.155 7.5 7.5 7.5C7.845 7.5 8.125 7.78 8.125 8.125ZM5.625 8.125C5.625 8.47 5.345 8.75 5 8.75C4.655 8.75 4.375 8.47 4.375 8.125C4.375 7.78 4.655 7.5 5 7.5C5.345 7.5 5.625 7.78 5.625 8.125ZM10.625 10.625C10.625 10.97 10.345 11.25 10 11.25C9.655 11.25 9.375 10.97 9.375 10.625C9.375 10.28 9.655 10 10 10C10.345 10 10.625 10.28 10.625 10.625ZM8.125 10.625C8.125 10.97 7.845 11.25 7.5 11.25C7.155 11.25 6.875 10.97 6.875 10.625C6.875 10.28 7.155 10 7.5 10C7.845 10 8.125 10.28 8.125 10.625ZM5.625 10.625C5.625 10.97 5.345 11.25 5 11.25C4.655 11.25 4.375 10.97 4.375 10.625C4.375 10.28 4.655 10 5 10C5.345 10 5.625 10.28 5.625 10.625Z" fill="black"/>
</svg>
