<svg width="16" height="19" viewBox="0 0 16 19" fill="none" xmlns="http://www.w3.org/2000/svg">
<g clip-path="url(#clip0)">
<path d="M14.2857 8.35714H13.4286V5.78572C13.4286 2.79286 10.9929 0.357143 8 0.357143C5.00714 0.357143 2.57143 2.79286 2.57143 5.78572V8.35714H1.71429C0.767857 8.35714 0 9.125 0 10.0714V16.9286C0 17.875 0.767857 18.6429 1.71429 18.6429H14.2857C15.2321 18.6429 16 17.875 16 16.9286V10.0714C16 9.125 15.2321 8.35714 14.2857 8.35714ZM10.5714 8.35714H5.42857V5.78572C5.42857 4.36786 6.58214 3.21429 8 3.21429C9.41786 3.21429 10.5714 4.36786 10.5714 5.78572V8.35714Z" fill="#A4A4A4"/>
</g>
<defs>
<clipPath id="clip0">
<rect width="16" height="18.2857" fill="white" transform="translate(0 0.357143)"/>
</clipPath>
</defs>
</svg>
