<svg width="16" height="19" viewBox="0 0 16 19" fill="none" xmlns="http://www.w3.org/2000/svg">
<g clip-path="url(#clip0)">
<path d="M8 9.5C10.525 9.5 12.5714 7.45357 12.5714 4.92857C12.5714 2.40357 10.525 0.357143 8 0.357143C5.475 0.357143 3.42857 2.40357 3.42857 4.92857C3.42857 7.45357 5.475 9.5 8 9.5ZM11.2 10.6429H10.6036C9.81071 11.0071 8.92857 11.2143 8 11.2143C7.07143 11.2143 6.19286 11.0071 5.39643 10.6429H4.8C2.15 10.6429 0 12.7929 0 15.4429V16.9286C0 17.875 0.767857 18.6429 1.71429 18.6429H14.2857C15.2321 18.6429 16 17.875 16 16.9286V15.4429C16 12.7929 13.85 10.6429 11.2 10.6429Z" fill="#A4A4A4"/>
</g>
<defs>
<clipPath id="clip0">
<rect width="16" height="18.2857" fill="white" transform="translate(0 0.357143)"/>
</clipPath>
</defs>
</svg>
