<svg width="17" height="16" viewBox="0 0 17 16" fill="none" xmlns="http://www.w3.org/2000/svg">
<g clip-path="url(#clip0)">
<path d="M13.5 14H10.875C10.6687 14 10.5 13.8313 10.5 13.625V12.375C10.5 12.1687 10.6687 12 10.875 12H13.5C14.0531 12 14.5 11.5531 14.5 11V5C14.5 4.44688 14.0531 4 13.5 4H10.875C10.6687 4 10.5 3.83125 10.5 3.625V2.375C10.5 2.16875 10.6687 2 10.875 2H13.5C15.1562 2 16.5 3.34375 16.5 5V11C16.5 12.6562 15.1562 14 13.5 14ZM12.0312 7.71875L6.78125 2.46875C6.3125 2 5.5 2.32812 5.5 3V6H1.25C0.834375 6 0.5 6.33437 0.5 6.75V9.75C0.5 10.1656 0.834375 10.5 1.25 10.5H5.5V13.5C5.5 14.1719 6.3125 14.5 6.78125 14.0312L12.0312 8.78125C12.3219 8.4875 12.3219 8.0125 12.0312 7.71875Z" fill="white"/>
</g>
<defs>
<clipPath id="clip0">
<rect width="16" height="16" fill="white" transform="translate(0.5)"/>
</clipPath>
</defs>
</svg>
