<svg width="30" height="30" viewBox="0 0 30 30" fill="none" xmlns="http://www.w3.org/2000/svg">
<path d="M25.1371 6.37062C23.5784 4.47937 21.4122 3.43811 19.0347 3.43811C17.6047 3.43811 16.2222 3.78559 14.9997 4.44809C13.7784 3.78559 12.3959 3.43811 10.9647 3.43811C8.58716 3.43811 6.41968 4.47937 4.86218 6.37062C3.16718 8.42812 2.46467 11.2381 2.98092 13.8869C4.19967 20.1319 10.5597 24.4944 13.2384 26.0794C13.7822 26.4007 14.3909 26.5619 14.9997 26.5619C15.6084 26.5619 16.2184 26.4019 16.7622 26.0794C19.4397 24.4932 25.8009 20.1319 27.0197 13.8869C27.5347 11.2381 26.8321 8.42812 25.1371 6.37062ZM25.1784 13.5281C24.1059 19.0269 18.2671 23.0094 15.8059 24.4656C15.3096 24.7606 14.6897 24.7594 14.1934 24.4656C11.7322 23.0094 5.8934 19.0269 4.8209 13.5281C4.40965 11.4231 4.96715 9.1931 6.3084 7.5631C7.50465 6.11185 9.15716 5.31311 10.9647 5.31311C12.2372 5.31311 13.4572 5.66311 14.4947 6.32561C14.8022 6.52186 15.1971 6.52186 15.5046 6.32561C16.5421 5.66311 17.7622 5.31311 19.0347 5.31311C20.8409 5.31311 22.4947 6.11185 23.6909 7.5631C25.0322 9.1931 25.5884 11.4219 25.1784 13.5281Z" fill="white"/>
</svg>
