<svg width="30" height="30" viewBox="0 0 30 30" fill="none" xmlns="http://www.w3.org/2000/svg">
<path d="M15 20.7692C13.859 20.7692 12.7435 20.4309 11.7948 19.7969C10.846 19.163 10.1066 18.262 9.66993 17.2078C9.23327 16.1536 9.11902 14.9936 9.34162 13.8745C9.56423 12.7554 10.1137 11.7274 10.9205 10.9205C11.7274 10.1137 12.7554 9.56423 13.8745 9.34162C14.9936 9.11902 16.1536 9.23327 17.2078 9.66993C18.262 10.1066 19.163 10.846 19.7969 11.7948C20.4309 12.7435 20.7692 13.859 20.7692 15C20.7676 16.5296 20.1593 17.9961 19.0777 19.0777C17.9961 20.1593 16.5296 20.7676 15 20.7692ZM15 11.5385C14.3154 11.5385 13.6461 11.7415 13.0769 12.1218C12.5076 12.5022 12.064 13.0428 11.802 13.6753C11.54 14.3078 11.4714 15.0038 11.605 15.6753C11.7385 16.3468 12.0682 16.9636 12.5523 17.4477C13.0364 17.9318 13.6532 18.2615 14.3247 18.395C14.9962 18.5286 15.6922 18.46 16.3247 18.198C16.9572 17.936 17.4978 17.4924 17.8782 16.9231C18.2585 16.3539 18.4615 15.6846 18.4615 15C18.4607 14.0822 18.0958 13.2022 17.4468 12.5532C16.7978 11.9042 15.9178 11.5393 15 11.5385ZM15.7692 30H14.2308C13.313 29.9992 12.433 29.6342 11.784 28.9852C11.135 28.3363 10.77 27.4563 10.7692 26.5385C10.7712 26.4275 10.74 26.3185 10.6797 26.2253C10.6194 26.1322 10.5328 26.0591 10.4308 26.0154H10.4185C10.3256 25.9769 10.2233 25.9669 10.1247 25.9866C10.0261 26.0064 9.93559 26.0549 9.86462 26.1262C9.2105 26.7729 8.32948 27.1383 7.40965 27.1443C6.48983 27.1503 5.60408 26.7966 4.94154 26.1585L3.86462 25.0723C3.54221 24.7506 3.28642 24.3685 3.11189 23.9478C2.93736 23.5272 2.84753 23.0762 2.84753 22.6208C2.84753 22.1653 2.93736 21.7144 3.11189 21.2937C3.28642 20.873 3.54221 20.4909 3.86462 20.1692C3.94097 20.0909 3.99284 19.9919 4.01388 19.8846C4.03491 19.7772 4.02421 19.666 3.98308 19.5646C3.9455 19.4687 3.88021 19.3862 3.79555 19.3276C3.71088 19.2689 3.61067 19.2368 3.50769 19.2354C3.04931 19.2399 2.59457 19.1536 2.16969 18.9815C1.74481 18.8094 1.3582 18.5549 1.03213 18.2327C0.706064 17.9105 0.446992 17.5269 0.269848 17.1041C0.0927048 16.6813 0.000993305 16.2276 0 15.7692V14.2308C0.000814743 13.313 0.365773 12.433 1.01476 11.784C1.66375 11.135 2.54373 10.77 3.46154 10.7692C3.57236 10.7715 3.6813 10.7404 3.77428 10.6801C3.86726 10.6197 3.93999 10.5329 3.98308 10.4308V10.4185C4.02113 10.3255 4.03091 10.2233 4.01121 10.1248C3.99151 10.0263 3.94319 9.93581 3.87231 9.86462C3.54458 9.54483 3.28355 9.1632 3.10435 8.74182C2.92515 8.32045 2.83133 7.86771 2.82832 7.40982C2.82532 6.95193 2.91319 6.498 3.08685 6.07431C3.2605 5.65062 3.5165 5.2656 3.84 4.94154L4.93077 3.85077C5.58945 3.21982 6.46634 2.8676 7.37846 2.8676C8.29058 2.8676 9.16747 3.21982 9.82615 3.85077C9.90389 3.9316 10.004 3.98737 10.1136 4.01094C10.2233 4.03451 10.3374 4.02481 10.4415 3.98308C10.537 3.94564 10.619 3.88051 10.6771 3.79607C10.7353 3.71163 10.7668 3.61174 10.7677 3.50923C10.763 3.05098 10.8491 2.59632 11.0209 2.17147C11.1927 1.74661 11.4469 1.35995 11.7688 1.03376C12.0907 0.707573 12.4739 0.448299 12.8965 0.270878C13.319 0.0934573 13.7725 0.00139691 14.2308 0H15.7692C16.687 0.000814743 17.567 0.365773 18.216 1.01476C18.865 1.66375 19.23 2.54373 19.2308 3.46154C19.2253 3.56981 19.2534 3.67714 19.3112 3.76884C19.369 3.86054 19.4538 3.93214 19.5538 3.97385C19.6511 4.0153 19.7582 4.0282 19.8626 4.01103C19.9669 3.99387 20.0642 3.94735 20.1431 3.87692C20.4644 3.54756 20.8485 3.28586 21.2725 3.10725C21.6966 2.92864 22.1522 2.83672 22.6123 2.83692C23.0671 2.83565 23.5176 2.92461 23.9377 3.09864C24.3579 3.27267 24.7393 3.52831 25.06 3.85077L26.1462 4.92769C26.4676 5.24913 26.7226 5.63072 26.8965 6.0507C27.0705 6.47068 27.16 6.92081 27.16 7.37538C27.16 7.82996 27.0705 8.28009 26.8965 8.70007C26.7226 9.12004 26.4676 9.50164 26.1462 9.82308C26.0645 9.89526 26.0072 9.99096 25.9822 10.097C25.9571 10.2031 25.9655 10.3143 26.0062 10.4154L26.0154 10.4369C26.0529 10.5318 26.1179 10.6132 26.202 10.6708C26.2862 10.7284 26.3857 10.7595 26.4877 10.76C26.9469 10.7549 27.4025 10.8409 27.8282 11.013C28.2539 11.1851 28.6413 11.4399 28.9679 11.7627C29.2945 12.0854 29.5539 12.4698 29.7311 12.8934C29.9082 13.317 29.9996 13.7716 30 14.2308V15.7692C29.9992 16.687 29.6342 17.567 28.9852 18.216C28.3363 18.865 27.4563 19.23 26.5385 19.2308C26.4302 19.2253 26.3229 19.2534 26.2312 19.3112C26.1395 19.369 26.0679 19.4538 26.0262 19.5538C25.9853 19.6512 25.9727 19.7582 25.9898 19.8624C26.0069 19.9666 26.0531 20.0639 26.1231 20.1431C26.4504 20.4633 26.7109 20.8452 26.8896 21.2668C27.0683 21.6884 27.1615 22.1413 27.164 22.5992C27.1664 23.057 27.078 23.5109 26.9038 23.9343C26.7296 24.3578 26.4731 24.7425 26.1492 25.0662L25.0723 26.1523C24.4136 26.7833 23.5367 27.1355 22.6246 27.1355C21.7125 27.1355 20.8356 26.7833 20.1769 26.1523C20.1046 26.0709 20.0089 26.0137 19.9029 25.9886C19.7969 25.9636 19.6857 25.9719 19.5846 26.0123C19.4867 26.0506 19.4021 26.1165 19.3409 26.202C19.2797 26.2875 19.2447 26.3888 19.24 26.4938C19.2443 26.9525 19.1577 27.4074 18.9852 27.8324C18.8127 28.2574 18.5578 28.6441 18.2351 28.97C17.9124 29.296 17.5284 29.5548 17.1052 29.7316C16.6819 29.9084 16.2279 29.9996 15.7692 30ZM11.4477 23.9508C11.9289 24.1817 12.3362 24.5421 12.6239 24.9915C12.9117 25.441 13.0686 25.9618 13.0769 26.4954C13.0726 26.6501 13.0992 26.8042 13.1551 26.9485C13.2111 27.0928 13.2952 27.2246 13.4026 27.336C13.5101 27.4475 13.6386 27.5364 13.7808 27.5975C13.923 27.6587 14.076 27.6909 14.2308 27.6923H15.7692C16.0753 27.6923 16.3687 27.5707 16.5851 27.3544C16.8015 27.138 16.9231 26.8445 16.9231 26.5385C16.9223 25.9699 17.0899 25.4139 17.4048 24.9405C17.7197 24.4671 18.1677 24.0976 18.6923 23.8785C19.2068 23.6652 19.773 23.6098 20.3191 23.7194C20.8651 23.829 21.3661 24.0986 21.7585 24.4938C21.8645 24.6072 21.9922 24.6981 22.134 24.7612C22.2758 24.8243 22.4288 24.8584 22.584 24.8614C22.7391 24.8644 22.8933 24.8363 23.0375 24.7787C23.1816 24.7212 23.3127 24.6353 23.4231 24.5262L24.5092 23.4492C24.726 23.2323 24.8477 22.9382 24.8477 22.6315C24.8477 22.3249 24.726 22.0308 24.5092 21.8138C24.1141 21.416 23.8435 20.9116 23.7307 20.3624C23.6178 19.8132 23.6676 19.2429 23.8738 18.7215V18.7L23.8846 18.6738C24.0961 18.1582 24.4566 17.7173 24.9201 17.4076C25.3835 17.0979 25.9288 16.9335 26.4862 16.9354C26.6407 16.9395 26.7945 16.9127 26.9386 16.8567C27.0826 16.8007 27.2141 16.7165 27.3252 16.609C27.4364 16.5016 27.525 16.3731 27.5859 16.231C27.6469 16.0889 27.6788 15.9361 27.68 15.7815V14.2431C27.68 13.9371 27.5584 13.6436 27.342 13.4272C27.1257 13.2108 26.8322 13.0892 26.5262 13.0892C25.9622 13.0962 25.4091 12.9344 24.9379 12.6246C24.4666 12.3149 24.0987 11.8712 23.8815 11.3508C23.658 10.8298 23.5965 10.2536 23.7049 9.69718C23.8132 9.14074 24.0865 8.62979 24.4892 8.23077C24.6052 8.12162 24.6979 7.99009 24.7616 7.84413C24.8253 7.69816 24.8588 7.5408 24.86 7.38154C24.8605 7.22998 24.8308 7.07983 24.7727 6.93985C24.7146 6.79987 24.6292 6.67284 24.5215 6.56615L23.4446 5.48C23.3373 5.37292 23.2099 5.28805 23.0697 5.23023C22.9295 5.17242 22.7793 5.14281 22.6277 5.14308C22.4757 5.14236 22.3251 5.17207 22.1848 5.23046C22.0445 5.28886 21.9174 5.37475 21.8108 5.48308C21.4125 5.87754 20.9081 6.14763 20.3591 6.26045C19.81 6.37327 19.24 6.32394 18.7185 6.11846L18.6923 6.11385L18.6662 6.10308C18.1505 5.89158 17.7096 5.53105 17.3999 5.06762C17.0902 4.60419 16.9258 4.05892 16.9277 3.50154C16.9318 3.34701 16.905 3.19321 16.849 3.04913C16.793 2.90506 16.7088 2.7736 16.6013 2.66245C16.4939 2.55129 16.3654 2.46267 16.2233 2.40175C16.0812 2.34084 15.9284 2.30886 15.7738 2.30769H14.2354C13.9294 2.30769 13.6359 2.42926 13.4195 2.64565C13.2031 2.86203 13.0815 3.15552 13.0815 3.46154C13.0882 4.0294 12.9237 4.58612 12.6096 5.05919C12.2954 5.53226 11.846 5.89976 11.32 6.11385C10.8025 6.32609 10.2341 6.38208 9.68508 6.27491C9.13607 6.16773 8.63048 5.90208 8.23077 5.51077C8.12453 5.3983 7.99695 5.30812 7.85547 5.24551C7.714 5.18289 7.56146 5.14909 7.40678 5.14609C7.25209 5.14308 7.09836 5.17092 6.95456 5.22799C6.81075 5.28506 6.67976 5.37021 6.56923 5.47846L5.47846 6.56923C5.37124 6.67639 5.28618 6.80362 5.22815 6.94366C5.17012 7.0837 5.14025 7.2338 5.14025 7.38538C5.14025 7.53697 5.17012 7.68707 5.22815 7.82711C5.28618 7.96715 5.37124 8.09438 5.47846 8.20154C5.88393 8.59564 6.16193 9.10226 6.27656 9.65595C6.39119 10.2096 6.33719 10.785 6.12154 11.3077C6.1005 11.3604 6.07635 11.4117 6.04923 11.4615C5.81638 11.9401 5.45515 12.3446 5.00583 12.6298C4.55651 12.9151 4.03678 13.0698 3.50462 13.0769C3.34988 13.0726 3.19584 13.0992 3.0515 13.1551C2.90717 13.2111 2.77542 13.2952 2.66398 13.4026C2.55254 13.5101 2.46363 13.6386 2.40245 13.7808C2.34128 13.923 2.30906 14.076 2.30769 14.2308V15.7692C2.30769 16.0753 2.42926 16.3687 2.64565 16.5851C2.86203 16.8015 3.15552 16.9231 3.46154 16.9231C4.02612 16.9159 4.57988 17.0783 5.05111 17.3893C5.52234 17.7004 5.88934 18.1457 6.10462 18.6677L6.11385 18.6877L6.12154 18.7092C6.32784 19.2266 6.37951 19.7928 6.27027 20.339C6.16103 20.8852 5.89558 21.3879 5.50615 21.7862C5.39267 21.8937 5.30224 22.0233 5.24036 22.1669C5.17847 22.3105 5.14642 22.4652 5.14615 22.6215C5.145 22.7735 5.17421 22.9242 5.23206 23.0648C5.28992 23.2053 5.37526 23.3329 5.48308 23.44L6.56923 24.5169C6.78906 24.7269 7.08137 24.8441 7.38538 24.8441C7.6894 24.8441 7.98171 24.7269 8.20154 24.5169C8.59628 24.1124 9.10314 23.8354 9.65676 23.7216C10.2104 23.6078 10.7854 23.6624 11.3077 23.8785C11.3556 23.9 11.4024 23.9241 11.4477 23.9508Z" fill="white"/>
</svg>
